<?xml version='1.0' encoding='UTF-8'?>
<svg xmlns:dc="http://purl.org/dc/elements/1.1/" xmlns:cc="http://creativecommons.org/ns#" xmlns:rdf="http://www.w3.org/1999/02/22-rdf-syntax-ns#" xmlns:svg="http://www.w3.org/2000/svg" xmlns="http://www.w3.org/2000/svg" xmlns:xlink="http://www.w3.org/1999/xlink" xmlns:sodipodi="http://sodipodi.sourceforge.net/DTD/sodipodi-0.dtd" xmlns:inkscape="http://www.inkscape.org/namespaces/inkscape" width="210mm" height="297mm" id="svg5394" version="1.1" inkscape:version="0.48.3.1 r9886" sodipodi:docname="logo404v4.svg" inkscape:export-filename="/media/watanabe-vermorel/partage/pirate/Images/png/logo404v4.png" inkscape:export-xdpi="90" inkscape:export-ydpi="90">
  <defs id="defs5396">
    <path sodipodi:nodetypes="cc" inkscape:connector-curvature="0" id="path4949" d="m 2448.6097,1017.1439 c 188.3824,-102.33951 584.3157,-110.79476 751.5536,0" style="fill:none;stroke:none"></path>
    <path sodipodi:nodetypes="cc" inkscape:connector-curvature="0" id="path4938" d="m 1923.3304,1787.7532 c 320.834,1038.7227 1517.868,1058.5564 1802.1122,-8.0812" style="fill:none;stroke:none"></path>
  </defs>
  <sodipodi:namedview id="base" pagecolor="#ffffff" bordercolor="#666666" borderopacity="1.0" inkscape:pageopacity="0.0" inkscape:pageshadow="2" inkscape:zoom="0.78463562" inkscape:cx="442.2512" inkscape:cy="618.6929" inkscape:document-units="px" inkscape:current-layer="layer1" showgrid="false" inkscape:window-width="1600" inkscape:window-height="804" inkscape:window-x="0" inkscape:window-y="25" inkscape:window-maximized="1" showguides="true" inkscape:guide-bbox="true">
    <sodipodi:guide orientation="1,0" position="17.842677,751.94139" id="guide5120"></sodipodi:guide>
    <sodipodi:guide orientation="0,1" position="604.10207,1019.5815" id="guide5122"></sodipodi:guide>
    <sodipodi:guide orientation="1,0" position="703.51127,644.88533" id="guide5124"></sodipodi:guide>
    <sodipodi:guide orientation="0,1" position="59.900416,503.41839" id="guide3984"></sodipodi:guide>
    <sodipodi:guide orientation="0,1" position="304.59999,457.53722" id="guide3986"></sodipodi:guide>
    <sodipodi:guide orientation="0,1" position="435.87111,545.47613" id="guide4030"></sodipodi:guide>
  </sodipodi:namedview>
  <metadata id="metadata5399">
    <rdf:RDF>
      <cc:Work rdf:about="">
        <dc:format>image/svg+xml</dc:format>
        <dc:type rdf:resource="http://purl.org/dc/dcmitype/StillImage"></dc:type>
        <dc:title></dc:title>
      </cc:Work>
    </rdf:RDF>
  </metadata>
  <g inkscape:label="Calque 1" inkscape:groupmode="layer" id="layer1">
    <text xml:space="preserve" style="font-size:56px;font-style:normal;font-variant:normal;font-weight:normal;font-stretch:normal;line-height:125%;letter-spacing:0px;word-spacing:0px;fill:#000000;fill-opacity:1;stroke:none;font-family:Ubuntu;-inkscape-font-specification:Ubuntu" x="-1168.5714" y="-310.49496" id="text4318" sodipodi:linespacing="125%"><tspan sodipodi:role="line" id="tspan4320" x="-1168.5714" y="-310.49496"></tspan></text>
    <text xml:space="preserve" style="font-size:72px;font-style:normal;font-variant:normal;font-weight:normal;font-stretch:normal;line-height:125%;letter-spacing:0px;word-spacing:0px;fill:#000000;fill-opacity:1;stroke:none;font-family:Ubuntu;-inkscape-font-specification:Ubuntu" x="-1789.3656" y="1011.5789" id="text4322" sodipodi:linespacing="125%"><tspan sodipodi:role="line" id="tspan4324" x="-1789.3656" y="1011.5789"></tspan></text>
    <g id="g5849" transform="translate(-497.45759,-756.93573)" style="fill:#008000;stroke:none"></g>
    <path style="fill:none;stroke:#000000;stroke-width:1px;stroke-linecap:butt;stroke-linejoin:miter;stroke-opacity:1" d="M 62.841559,405.06006 C 143.1236,783.28294 601.38948,757.7053 658.7934,403.1692" id="path4298" inkscape:connector-curvature="0" sodipodi:nodetypes="cc"></path>
    <path style="fill:none;stroke:#000000;stroke-width:1px;stroke-linecap:butt;stroke-linejoin:miter;stroke-opacity:1" d="M 79.969939,400.61422 C 164.07543,13.469961 605.7731,54.341369 637.68749,407.60299" id="path4298-3" inkscape:connector-curvature="0" sodipodi:nodetypes="cc"></path>
    <path sodipodi:type="arc" style="fill:#3b0c3b;fill-opacity:1;stroke:none" id="path4921" sodipodi:cx="2012.2239" sodipodi:cy="1424.0983" sodipodi:rx="1034.3962" sodipodi:ry="1002.0714" d="m 3046.6201,1424.0983 a 1034.3962,1002.0714 0 1 1 -2068.79246,0 1034.3962,1002.0714 0 1 1 2068.79246,0 z" transform="matrix(0.32975017,0,0,0.34437617,-300.94151,-113.77758)"></path>
    <path sodipodi:type="arc" style="fill:#ffffff;fill-opacity:1;stroke:none" id="path4923" sodipodi:cx="2848.6301" sodipodi:cy="1666.5349" sodipodi:rx="602.0509" sodipodi:ry="662.6601" d="m 3450.681,1666.5349 a 602.0509,662.6601 0 1 1 -1204.1018,0 602.0509,662.6601 0 1 1 1204.1018,0 z" transform="matrix(0.51343651,0,0,0.47623894,-1099.2933,-415.79518)"></path>
    <path style="fill:none;stroke:none" d="M 64.133856,404.62818 C 169.92892,747.14717 564.65109,753.68733 658.38066,401.9634" id="path5378" inkscape:connector-curvature="0" sodipodi:nodetypes="cc"></path>
    <path style="fill:none;stroke:none" d="m 237.34479,150.51963 c 62.11913,-33.74647 192.67821,-36.53459 247.82493,0" id="path5380" inkscape:connector-curvature="0" sodipodi:nodetypes="cc"></path>
    <g id="g4118" style="fill:#76c26f;fill-opacity:1">
      <path sodipodi:nodetypes="ccccc" inkscape:connector-curvature="0" id="rect3768-85-93-3" d="m 391.44252,222.2001 c 0.74753,11.6224 2.56518,13.7602 14.49066,15.7768 l 42.28971,-35.7361 c -0.34878,-10.0666 -5.17513,-15.0576 -14.49066,-15.7768 z" style="fill:#76c26f;fill-opacity:1;stroke:none"></path>
      <path sodipodi:nodetypes="ccccc" inkscape:connector-curvature="0" id="rect3768-0-4-8-3" d="m 448.80202,148.0907 c -9.58608,-7.1449 -12.45989,-7.2499 -21.92079,0 l 0,54.0599 c 8.10542,6.4035 15.20024,6.2292 21.92079,0 z" style="fill:#76c26f;fill-opacity:1;stroke:none"></path>
      <path sodipodi:nodetypes="ccccc" inkscape:connector-curvature="0" id="rect3768-1-04-10-9" d="m 365.55907,230.1494 c -5.13525,-10.5514 -9.55482,-13.8134 -18.87236,-7.6752 l -23.14872,48.1136 c 4.16994,9.2439 7.381,10.28 16.32341,7.6752 z" style="fill:#76c26f;fill-opacity:1;stroke:none"></path>
      <path sodipodi:nodetypes="ccccc" inkscape:connector-curvature="0" id="rect3768-0-5-3-6-0" d="m 342.06861,271.8787 c -9.58608,-7.1449 -9.2737,-8.5244 -18.7346,-1.2745 l -3.18619,55.3344 c 8.10543,6.4035 15.20024,6.2292 21.92079,0 z" style="fill:#76c26f;fill-opacity:1;stroke:none"></path>
      <path sodipodi:nodetypes="ccccc" inkscape:connector-curvature="0" id="rect3768-1-9-53-2-0" d="m 399.11507,322.9762 c -13.18282,-7.2916 -16.73001,-6.9118 -26.89756,3.9057 l 10.74692,68.0924 c 11.21864,6.6215 19.88952,5.1379 26.89756,-3.9057 z" style="fill:#76c26f;fill-opacity:1;stroke:none"></path>
      <path sodipodi:nodetypes="ccccc" inkscape:connector-curvature="0" id="rect3768-0-5-7-56-4-1" d="m 409.96082,392.3059 c -11.89645,-9.1021 -14.18842,-8.5986 -25.92953,0.6372 l 0,68.8683 c 10.05895,8.1576 18.86371,7.9355 27.20401,0 z" style="fill:#76c26f;fill-opacity:1;stroke:none"></path>
      <path sodipodi:nodetypes="ccccc" inkscape:connector-curvature="0" id="rect3768-1-9-5-5-0-1" d="m 384.83204,332.8098 c -9.6257,-11.3054 -13.08244,-12.1581 -26.59125,-5.5072 l -15.15341,67.317 c 8.03744,10.0102 16.69269,11.5755 26.59125,5.5072 z" style="fill:#76c26f;fill-opacity:1;stroke:none"></path>
      <path sodipodi:nodetypes="ccccc" inkscape:connector-curvature="0" id="rect3768-0-5-7-5-29-4-2" d="M 369.69966,395.6848 C 357.8032,386.5827 355.51124,383.9 343.77012,393.1358 l -1.27448,71.4173 c 10.05896,8.1576 18.86372,7.9355 27.20402,0 z" style="fill:#76c26f;fill-opacity:1;stroke:none"></path>
      <path sodipodi:nodetypes="ccccc" inkscape:connector-curvature="0" id="rect3766-0-0-2" d="m 404.96044,219.1807 c -11.99506,-7.0498 -34.50633,-10.9148 -50.62661,0.5006 l 4.17539,107.6336 c 11.30708,6.5117 25.23399,5.4848 40.71005,0 z" style="fill:#76c26f;fill-opacity:1;stroke:none"></path>
      <path transform="matrix(-0.29982765,0,0,0.40293229,102.742,107.4702)" d="m -848.57143,205.21933 a 67.14286,64.285713 0 1 1 -134.28572,0 67.14286,64.285713 0 1 1 134.28572,0 z" sodipodi:ry="64.285713" sodipodi:rx="67.14286" sodipodi:cy="205.21933" sodipodi:cx="-915.71429" id="path2996-21-5-3" style="fill:#76c26f;fill-opacity:1;stroke:none" sodipodi:type="arc"></path>
    </g>
    <g id="g4092" style="fill:#555584;fill-opacity:1">
      <path sodipodi:nodetypes="ccccc" inkscape:connector-curvature="0" id="rect3768-2-0-2" d="m 161.60727,231.1116 c 11.96289,-2.1104 14.55063,-0.8288 19.34597,10.528 l -26.50279,50.8022 c -10.29267,2.1247 -16.46862,-1.4466 -19.34597,-10.5281 z" style="fill:#555584;fill-opacity:1;stroke:none"></path>
      <path sodipodi:nodetypes="ccccc" inkscape:connector-curvature="0" id="rect3768-0-3-0-4" d="m 135.22617,281.4367 c 9.58608,-7.608 12.45989,-7.7198 21.92079,0 l 0,57.5636 c -8.10542,6.8185 -15.20024,6.6329 -21.92079,0 z" style="fill:#555584;fill-opacity:1;stroke:none"></path>
      <path sodipodi:nodetypes="ccccc" inkscape:connector-curvature="0" id="rect3768-1-4-9-5" d="m 197.81122,244.4683 c 3.94926,-11.7248 6.29505,-13.4241 18.34961,-12.2483 l 30.19585,48.8229 c -3.13271,10.2366 -8.53385,13.4083 -17.71236,11.6111 z" style="fill:#555584;fill-opacity:1;stroke:none"></path>
      <path sodipodi:nodetypes="ccccc" inkscape:connector-curvature="0" id="rect3768-0-5-6-0-4" d="m 226.30187,277.8485 c 9.58607,-7.6079 10.54817,-3.8963 20.00907,3.8234 l 1.91172,53.7403 c -8.10543,6.8185 -15.20024,6.6329 -21.92079,0 z" style="fill:#555584;fill-opacity:1;stroke:none"></path>
      <path sodipodi:nodetypes="ccccc" inkscape:connector-curvature="0" id="rect3768-1-9-6-8-6" d="m 168.62297,345.8216 c 13.4697,-7.2324 16.99871,-6.6867 26.71799,5.2287 l -13.51165,72.0215 c -11.47973,6.5977 -20.08357,4.6732 -26.71799,-5.2288 z" style="fill:#555584;fill-opacity:1;stroke:none"></path>
      <path sodipodi:nodetypes="ccccc" inkscape:connector-curvature="0" id="rect3768-0-5-7-8-9-5" d="m 155.04748,417.4206 c 11.89646,-9.692 15.4629,-9.8345 27.20402,0 l 0,73.3317 c -10.05896,8.6863 -18.86372,8.4498 -27.20402,0 z" style="fill:#555584;fill-opacity:1;stroke:none"></path>
      <path sodipodi:nodetypes="ccccc" inkscape:connector-curvature="0" id="rect3768-1-9-5-6-3-6" d="m 182.74773,351.0901 c 9.71901,-11.9596 13.18269,-12.8395 26.63601,-5.6482 l 14.59555,71.8006 c -8.12007,10.5934 -16.78801,12.1899 -26.63602,5.6482 z" style="fill:#555584;fill-opacity:1;stroke:none"></path>
      <path sodipodi:nodetypes="ccccc" inkscape:connector-curvature="0" id="rect3768-0-5-7-5-5-6-7" d="m 197.28341,420.4207 c 8.16847,-13.1136 11.49619,-14.4315 25.72852,-9.0262 l 23.32462,69.3543 c -6.75054,11.5527 -15.15296,14.2504 -25.72852,9.0262 z" style="fill:#555584;fill-opacity:1;stroke:none"></path>
      <path sodipodi:nodetypes="ccccc" inkscape:connector-curvature="0" id="rect3766-82-0-5" d="m 163.41004,230.2642 c 11.99506,-7.5067 34.50633,-11.6222 50.62661,0.5331 l -4.17539,114.6094 c -11.30708,6.9337 -25.234,5.8402 -40.71006,0 z" style="fill:#555584;fill-opacity:1;stroke:none"></path>
      <path transform="matrix(0.29912317,0,0,0.43096971,464.0406,111.557)" d="m -848.57143,205.21933 a 67.14286,64.285713 0 1 1 -134.28572,0 67.14286,64.285713 0 1 1 134.28572,0 z" sodipodi:ry="64.285713" sodipodi:rx="67.14286" sodipodi:cy="205.21933" sodipodi:cx="-915.71429" id="path2996-8-3-2" style="fill:#555584;fill-opacity:1;stroke:none" sodipodi:type="arc"></path>
    </g>
    <g id="g4130" style="fill:#7171e3;fill-opacity:1">
      <path sodipodi:nodetypes="ccccc" inkscape:connector-curvature="0" id="rect3768-0-5-95-7-7" d="m 547.74986,232.7756 c 10.0917,-6.2219 12.85724,-5.96427 20.99265,2.80007 l -6.89668,56.34092 c -8.57916,5.6384 -15.35133,4.55046 -20.99263,-2.79994 z" style="fill:#7171e3;fill-opacity:1;stroke:none"></path>
      <path sodipodi:nodetypes="ccccc" inkscape:connector-curvature="0" id="rect3768-7-71-7" d="m 488.32325,231.00379 c 9.46107,7.22141 10.32627,9.97539 5.82487,21.23823 l -52.31123,15.63303 c -8.35016,-6.00133 -10.0667,-12.92562 -5.82486,-21.23822 z" style="fill:#7171e3;fill-opacity:1;stroke:none"></path>
      <path sodipodi:nodetypes="ccccc" inkscape:connector-curvature="0" id="rect3768-0-535-2-6" d="m 432.26088,264.52301 c -1.71147,-12.10338 -0.43925,-14.6795 10.40611,-19.23646 l 47.38059,27.92847 c 1.76456,10.42098 -1.75622,16.55697 -10.4061,19.23634 z" style="fill:#7171e3;fill-opacity:1;stroke:none"></path>
      <path sodipodi:nodetypes="ccccc" inkscape:connector-curvature="0" id="rect3768-1-93-0-1" d="m 520.91,241.21491 c 5.66727,-10.70918 3.266,-11.18619 14.53788,-7.94798 l 26.37443,51.42585 c -4.64812,9.40476 -11.01147,12.05705 -19.447,8.71488 z" style="fill:#7171e3;fill-opacity:1;stroke:none"></path>
      <path sodipodi:nodetypes="ccccc" inkscape:connector-curvature="0" id="rect3768-1-9-0-4-8" d="m 489.51235,345.92471 c 12.36568,-8.28131 15.80455,-8.05183 26.12509,2.81607 l -7.12015,71.97492 c -10.50341,7.48434 -18.93597,6.3408 -26.12509,-2.81607 z" style="fill:#7171e3;fill-opacity:1;stroke:none"></path>
      <path sodipodi:nodetypes="ccccc" inkscape:connector-curvature="0" id="rect3768-0-5-7-4-3-0" d="m 484.075,413.3156 c 14.06569,-4.42916 17.31283,-3.22533 24.38714,10.17767 l -25.73319,67.18704 c -12.06552,4.19511 -19.8756,0.68435 -24.38713,-10.17778 z" style="fill:#7171e3;fill-opacity:1;stroke:none"></path>
      <path sodipodi:nodetypes="cccccc" inkscape:connector-curvature="0" id="rect3768-1-9-5-08-6-1" d="m 505.03802,347.76739 c 9.67549,-11.54069 13.04008,-12.31733 25.8464,-4.86946 l 4.2587,24.63022 8.05343,46.57697 c -8.09857,10.23518 -16.50359,11.58161 -25.8464,4.86958 z" style="fill:#7171e3;fill-opacity:1;stroke:none"></path>
      <path sodipodi:nodetypes="ccccc" inkscape:connector-curvature="0" id="rect3768-0-5-7-5-1-9-5" d="m 517.58206,415.57537 c 11.48537,-9.56336 14.92858,-9.70391 26.26399,0 l 0,72.3577 c -9.71137,8.57084 -18.21189,8.33751 -26.26399,0 z" style="fill:#7171e3;fill-opacity:1;stroke:none"></path>
      <path sodipodi:nodetypes="ccccc" inkscape:connector-curvature="0" id="rect3766-5-3-5" d="m 485.55527,232.23193 c 11.58057,-7.40696 33.31396,-11.46789 48.87721,0.52598 l -4.03111,113.08726 c -10.91637,6.84162 -24.36203,5.76258 -39.30333,0 z" style="fill:#7171e3;fill-opacity:1;stroke:none"></path>
      <path transform="matrix(0.28291448,0,0,0.44131221,769.08352,110.9772)" d="m -848.57143,205.21933 a 67.14286,64.285713 0 1 1 -134.28572,0 67.14286,64.285713 0 1 1 134.28572,0 z" sodipodi:ry="64.285713" sodipodi:rx="67.14286" sodipodi:cy="205.21933" sodipodi:cx="-915.71429" id="path2996-7-9-6" style="fill:#7171e3;fill-opacity:1;stroke:none" sodipodi:type="arc"></path>
    </g>
    <g id="g4104" style="fill:#6f6fc2;fill-opacity:1" transform="translate(-21.1364,-2.5489539)">
      <path sodipodi:nodetypes="ccccc" inkscape:connector-curvature="0" id="rect3768-7-71-7-8" d="m 301.83316,258.98313 c 9.3747,6.22771 10.23201,8.60272 5.77169,18.31575 l -51.83373,13.48185 c -8.27395,-5.17552 -9.97482,-11.147 -5.7717,-18.31574 z" style="fill:#6f6fc2;fill-opacity:1;stroke:none"></path>
      <g style="fill:#6f6fc2;fill-opacity:1" id="g3144">
        <path style="fill:#6f6fc2;fill-opacity:1;stroke:none" d="m 360.71733,260.51113 c 9.99958,-5.36574 12.73987,-5.14356 20.80103,2.41477 l -6.83373,48.58814 c -8.50085,4.86253 -15.2112,3.9243 -20.80101,-2.41466 z" id="rect3768-0-5-95-7-7-6" inkscape:connector-curvature="0" sodipodi:nodetypes="ccccc"></path>
        <g style="fill:#6f6fc2;fill-opacity:1" id="g3134">
          <path sodipodi:nodetypes="ccccc" inkscape:connector-curvature="0" id="rect3768-0-535-2-6-7" d="m 246.28251,287.88995 c -1.69585,-10.4379 -0.43525,-12.65954 10.31113,-16.58943 l 46.9481,24.08538 c 1.74845,8.987 -1.74019,14.27865 -10.31111,16.58933 z" style="fill:#6f6fc2;fill-opacity:1;stroke:none"></path>
          <path sodipodi:nodetypes="ccccc" inkscape:connector-curvature="0" id="rect3768-1-93-0-1-7" d="m 334.12245,267.78915 c 5.61554,-9.23555 3.23619,-9.64692 14.40519,-6.8543 l 26.13368,44.34942 c -4.60569,8.11061 -10.91095,10.39794 -19.26948,7.51566 z" style="fill:#6f6fc2;fill-opacity:1;stroke:none"></path>
          <path sodipodi:nodetypes="ccccc" inkscape:connector-curvature="0" id="rect3768-1-9-0-4-8-0" d="m 303.0114,358.09039 c 12.25281,-7.14176 15.66029,-6.94386 25.88662,2.42857 l -7.05516,62.07084 c -10.40754,6.45445 -18.76312,5.46827 -25.88662,-2.42857 z" style="fill:#6f6fc2;fill-opacity:1;stroke:none"></path>
          <path sodipodi:nodetypes="ccccc" inkscape:connector-curvature="0" id="rect3768-0-5-7-4-3-0-2" d="m 297.62368,416.20798 c 13.9373,-3.81968 17.1548,-2.78151 24.16454,8.77717 l -25.4983,57.9418 c -11.95539,3.61784 -19.69419,0.59017 -24.16454,-8.77727 z" style="fill:#6f6fc2;fill-opacity:1;stroke:none"></path>
          <path sodipodi:nodetypes="cccccc" inkscape:connector-curvature="0" id="rect3768-1-9-5-08-6-1-0" d="m 318.39535,359.67951 c 9.58717,-9.95264 12.92106,-10.62241 25.61048,-4.1994 l 4.21983,21.24099 7.97992,40.16776 c -8.02465,8.82677 -16.35295,9.98792 -25.61048,4.1995 z" style="fill:#6f6fc2;fill-opacity:1;stroke:none"></path>
          <path sodipodi:nodetypes="ccccc" inkscape:connector-curvature="0" id="rect3768-0-5-7-5-1-9-5-2" d="m 330.82489,418.15679 c 11.38054,-8.24739 14.79232,-8.3686 26.02425,0 l 0,62.40095 c -9.62272,7.39145 -18.04564,7.19023 -26.02425,0 z" style="fill:#6f6fc2;fill-opacity:1;stroke:none"></path>
          <path sodipodi:nodetypes="ccccc" inkscape:connector-curvature="0" id="rect3766-5-3-5-0" d="m 299.09044,260.04227 c 11.47486,-6.38773 33.00988,-9.88986 48.43107,0.45361 l -3.99432,97.52592 c -10.81672,5.90018 -24.13966,4.96962 -38.94457,0 z" style="fill:#6f6fc2;fill-opacity:1;stroke:none"></path>
          <path transform="matrix(0.28033209,0,0,0.38058559,580.03069,155.47276)" d="m -848.57143,205.21933 c 0,35.50402 -30.06089,64.28571 -67.14286,64.28571 -37.08198,0 -67.14286,-28.78169 -67.14286,-64.28571 0,-35.50402 30.06088,-64.28571 67.14286,-64.28571 37.08197,0 67.14286,28.78169 67.14286,64.28571 z" sodipodi:ry="64.285713" sodipodi:rx="67.14286" sodipodi:cy="205.21933" sodipodi:cx="-915.71429" id="path2996-7-9-6-4" style="fill:#6f6fc2;fill-opacity:1;stroke:none" sodipodi:type="arc"></path>
        </g>
      </g>
    </g>
    <g id="g4068" transform="translate(-4.29903,6.329553)" style="fill:#e459cb;fill-opacity:1">
      <path sodipodi:nodetypes="ccccc" inkscape:connector-curvature="0" id="rect3768-85-93" d="m 273.29794,259.2788 c -0.74753,11.6224 -2.56518,13.7602 -14.49066,15.7768 l -42.28971,-35.7361 c 0.34878,-10.0666 5.17513,-15.0576 14.49066,-15.7768 z" style="fill:#e459cb;fill-opacity:1;stroke:none"></path>
      <path sodipodi:nodetypes="ccccc" inkscape:connector-curvature="0" id="rect3768-0-4-8" d="m 215.93844,185.1694 c 9.58608,-7.1449 12.45989,-7.2499 21.92079,0 l 0,54.0599 c -8.10542,6.4035 -15.20024,6.2292 -21.92079,0 z" style="fill:#e459cb;fill-opacity:1;stroke:none"></path>
      <path sodipodi:nodetypes="ccccc" inkscape:connector-curvature="0" id="rect3768-1-04-10" d="m 299.18139,267.2281 c 5.13525,-10.5514 9.55482,-13.8134 18.87236,-7.6752 l 23.14872,48.1136 c -4.16994,9.2439 -7.381,10.28 -16.32341,7.6752 z" style="fill:#e459cb;fill-opacity:1;stroke:none"></path>
      <path sodipodi:nodetypes="ccccc" inkscape:connector-curvature="0" id="rect3768-0-5-3-6" d="m 322.67185,308.9574 c 9.58608,-7.1449 9.2737,-8.5244 18.7346,-1.2745 l 3.18619,55.3344 c -8.10543,6.4035 -15.20024,6.2292 -21.92079,0 z" style="fill:#e459cb;fill-opacity:1;stroke:none"></path>
      <path sodipodi:nodetypes="ccccc" inkscape:connector-curvature="0" id="rect3768-1-9-53-2" d="m 265.62539,360.0549 c 13.18282,-7.2916 16.73001,-6.9118 26.89756,3.9057 l -10.74692,68.0924 c -11.21864,6.6215 -19.88952,5.1379 -26.89756,-3.9057 z" style="fill:#e459cb;fill-opacity:1;stroke:none"></path>
      <path sodipodi:nodetypes="ccccc" inkscape:connector-curvature="0" id="rect3768-0-5-7-56-4" d="m 254.77964,429.3846 c 11.89645,-9.1021 14.18842,-8.5986 25.92953,0.6372 l 0,68.8683 c -10.05895,8.1576 -18.86371,7.9355 -27.20401,0 z" style="fill:#e459cb;fill-opacity:1;stroke:none"></path>
      <path sodipodi:nodetypes="ccccc" inkscape:connector-curvature="0" id="rect3768-1-9-5-5-0" d="m 279.90842,369.8885 c 9.6257,-11.3054 13.08244,-12.1581 26.59125,-5.5072 l 15.15341,67.317 c -8.03744,10.0102 -16.69269,11.5755 -26.59125,5.5072 z" style="fill:#e459cb;fill-opacity:1;stroke:none"></path>
      <path sodipodi:nodetypes="ccccc" inkscape:connector-curvature="0" id="rect3768-0-5-7-5-29-4" d="m 295.0408,432.7635 c 11.89646,-9.1021 14.18842,-11.7848 25.92954,-2.549 l 1.27448,71.4173 c -10.05896,8.1576 -18.86372,7.9355 -27.20402,0 z" style="fill:#e459cb;fill-opacity:1;stroke:none"></path>
      <path sodipodi:nodetypes="ccccc" inkscape:connector-curvature="0" id="rect3766-0-0" d="m 259.78002,256.2594 c 11.99506,-7.0498 34.50633,-10.9148 50.62661,0.5006 l -4.17539,107.6336 c -11.30708,6.5117 -25.23399,5.4848 -40.71005,0 z" style="fill:#e459cb;fill-opacity:1;stroke:none"></path>
      <path transform="matrix(0.29982765,0,0,0.40293229,561.99846,144.5489)" d="m -848.57143,205.21933 c 0,35.50402 -30.06089,64.28571 -67.14286,64.28571 -37.08198,0 -67.14286,-28.78169 -67.14286,-64.28571 0,-35.50402 30.06088,-64.28571 67.14286,-64.28571 37.08197,0 67.14286,28.78169 67.14286,64.28571 z" sodipodi:ry="64.285713" sodipodi:rx="67.14286" sodipodi:cy="205.21933" sodipodi:cx="-915.71429" id="path2996-21-5" style="fill:#e459cb;fill-opacity:1;stroke:none" sodipodi:type="arc"></path>
    </g>
    <g id="g4044" transform="translate(-4.29903,6.329553)" style="fill:#e5ea30;fill-opacity:1">
      <path sodipodi:nodetypes="ccccc" inkscape:connector-curvature="0" id="rect3768-2-0" d="m 433.52591,260.9158 c 11.96289,-2.1104 14.55063,-0.8288 19.34597,10.528 l -26.50279,50.8022 c -10.29267,2.1247 -16.46862,-1.4466 -19.34597,-10.5281 z" style="fill:#e5ea30;fill-opacity:1;stroke:none"></path>
      <path sodipodi:nodetypes="ccccc" inkscape:connector-curvature="0" id="rect3768-0-3-0" d="m 407.14481,311.2409 c 9.58608,-7.608 12.45989,-7.7198 21.92079,0 l 0,57.5636 c -8.10542,6.8185 -15.20024,6.6329 -21.92079,0 z" style="fill:#e5ea30;fill-opacity:1;stroke:none"></path>
      <path sodipodi:nodetypes="ccccc" inkscape:connector-curvature="0" id="rect3768-1-4-9" d="m 469.72986,274.2725 c 3.94926,-11.7248 6.29505,-13.4241 18.34961,-12.2483 l 30.19585,48.8229 c -3.13271,10.2366 -8.53385,13.4083 -17.71236,11.6111 z" style="fill:#e5ea30;fill-opacity:1;stroke:none"></path>
      <path sodipodi:nodetypes="ccccc" inkscape:connector-curvature="0" id="rect3768-0-5-6-0" d="m 498.22051,307.6527 c 9.58607,-7.6079 10.54817,-3.8963 20.00907,3.8234 l 1.91172,53.7403 c -8.10543,6.8185 -15.20024,6.6329 -21.92079,0 z" style="fill:#e5ea30;fill-opacity:1;stroke:none"></path>
      <path sodipodi:nodetypes="ccccc" inkscape:connector-curvature="0" id="rect3768-1-9-6-8" d="m 440.54161,375.6258 c 13.4697,-7.2324 16.99871,-6.6867 26.71799,5.2287 l -13.51165,72.0215 c -11.47973,6.5977 -20.08357,4.6732 -26.71799,-5.2288 z" style="fill:#e5ea30;fill-opacity:1;stroke:none"></path>
      <path sodipodi:nodetypes="ccccc" inkscape:connector-curvature="0" id="rect3768-0-5-7-8-9" d="m 426.96612,447.2248 c 11.89646,-9.692 15.4629,-9.8345 27.20402,0 l 0,73.3317 c -10.05896,8.6863 -18.86372,8.4498 -27.20402,0 z" style="fill:#e5ea30;fill-opacity:1;stroke:none"></path>
      <path sodipodi:nodetypes="ccccc" inkscape:connector-curvature="0" id="rect3768-1-9-5-6-3" d="m 454.66637,380.8943 c 9.71901,-11.9596 13.18269,-12.8395 26.63601,-5.6482 l 14.59555,71.8006 c -8.12007,10.5934 -16.78801,12.1899 -26.63602,5.6482 z" style="fill:#e5ea30;fill-opacity:1;stroke:none"></path>
      <path sodipodi:nodetypes="ccccc" inkscape:connector-curvature="0" id="rect3768-0-5-7-5-5-6" d="m 469.20205,450.2249 c 8.16847,-13.1136 11.49619,-14.4315 25.72852,-9.0262 l 23.32462,69.3543 c -6.75054,11.5527 -15.15296,14.2504 -25.72852,9.0262 z" style="fill:#e5ea30;fill-opacity:1;stroke:none"></path>
      <path sodipodi:nodetypes="ccccc" inkscape:connector-curvature="0" id="rect3766-82-0" d="m 435.32868,260.0684 c 11.99506,-7.5067 34.50633,-11.6222 50.62661,0.5331 l -4.17539,114.6094 c -11.30708,6.9337 -25.234,5.8402 -40.71006,0 z" style="fill:#e5ea30;fill-opacity:1;stroke:none"></path>
      <path transform="matrix(0.29912317,0,0,0.43096971,735.95924,141.3612)" d="m -848.57143,205.21933 c 0,35.50402 -30.06089,64.28571 -67.14286,64.28571 -37.08198,0 -67.14286,-28.78169 -67.14286,-64.28571 0,-35.50402 30.06088,-64.28571 67.14286,-64.28571 37.08197,0 67.14286,28.78169 67.14286,64.28571 z" sodipodi:ry="64.285713" sodipodi:rx="67.14286" sodipodi:cy="205.21933" sodipodi:cx="-915.71429" id="path2996-8-3" style="fill:#e5ea30;fill-opacity:1;stroke:none" sodipodi:type="arc"></path>
    </g>
    <g id="g4032" transform="translate(-4.29903,6.329553)" style="fill:#d75959;fill-opacity:1">
      <path sodipodi:nodetypes="ccccc" inkscape:connector-curvature="0" id="rect3768-0-5-95-7" d="m 582.89694,294.8719 c 9.16982,-5.1705 11.68272,-4.9564 19.07496,2.3269 l -6.26666,46.8202 c -7.79545,4.6856 -13.94898,3.7815 -19.07495,-2.3268 z" style="fill:#d75959;fill-opacity:1;stroke:none"></path>
      <path sodipodi:nodetypes="ccccc" inkscape:connector-curvature="0" id="rect3768-7-71" d="m 528.89898,293.3995 c 8.59679,6.0011 9.38296,8.2897 5.29276,17.6493 l -47.53257,12.9913 c -7.58737,-4.9872 -9.14711,-10.7414 -5.29276,-17.6493 z" style="fill:#d75959;fill-opacity:1;stroke:none"></path>
      <path sodipodi:nodetypes="ccccc" inkscape:connector-curvature="0" id="rect3768-0-535-2" d="m 477.95793,321.2545 c -1.55513,-10.0581 -0.39913,-12.1989 9.45551,-15.9858 l 43.05235,23.209 c 1.60336,8.66 -1.59579,13.7591 -9.4555,15.9857 z" style="fill:#d75959;fill-opacity:1;stroke:none"></path>
      <path sodipodi:nodetypes="ccccc" inkscape:connector-curvature="0" id="rect3768-1-93-0" d="m 558.50891,301.8851 c 5.14956,-8.8995 2.96765,-9.2959 13.20984,-6.6049 l 23.96511,42.7357 c -4.22351,7.8155 -10.00556,10.0196 -17.6705,7.2422 z" style="fill:#d75959;fill-opacity:1;stroke:none"></path>
      <path sodipodi:nodetypes="ccccc" inkscape:connector-curvature="0" id="rect3768-1-9-0-4" d="m 529.97945,388.9006 c 11.23607,-6.8819 14.3608,-6.6912 23.73855,2.3402 l -6.46972,59.8123 c -9.54392,6.2196 -17.20616,5.2693 -23.73855,-2.3402 z" style="fill:#d75959;fill-opacity:1;stroke:none"></path>
      <path sodipodi:nodetypes="ccccc" inkscape:connector-curvature="0" id="rect3768-0-5-7-4-3" d="m 525.03881,444.9035 c 12.78078,-3.6807 15.73129,-2.6803 22.15936,8.4578 l -23.38245,55.8335 c -10.96333,3.4862 -18.05996,0.5687 -22.15936,-8.4579 z" style="fill:#d75959;fill-opacity:1;stroke:none"></path>
      <path sodipodi:nodetypes="cccccc" inkscape:connector-curvature="0" id="rect3768-1-9-5-08-6" d="m 544.08684,390.4319 c 8.79163,-9.5905 11.84887,-10.2359 23.48532,-4.0466 l 3.86967,20.4681 7.31775,38.7062 c -7.35877,8.5056 -14.99598,9.6245 -23.48532,4.0467 z" style="fill:#d75959;fill-opacity:1;stroke:none"></path>
      <path sodipodi:nodetypes="ccccc" inkscape:connector-curvature="0" id="rect3768-0-5-7-5-1-9" d="m 555.48498,446.7814 c 10.43618,-7.9473 13.56485,-8.0641 23.86476,0 l 0,60.1304 c -8.82423,7.1225 -16.54822,6.9286 -23.86476,0 z" style="fill:#d75959;fill-opacity:1;stroke:none"></path>
      <path sodipodi:nodetypes="ccccc" inkscape:connector-curvature="0" id="rect3766-5-3" d="m 526.38385,294.4201 c 10.52268,-6.1553 30.27072,-9.53 44.41226,0.4371 l -3.66287,93.9773 c -9.91915,5.6855 -22.13655,4.7888 -35.71295,0 z" style="fill:#d75959;fill-opacity:1;stroke:none"></path>
      <path transform="matrix(0.25707012,0,0,0.36673744,784.01167,193.6555)" d="m -848.57143,205.21933 c 0,35.50402 -30.06089,64.28571 -67.14286,64.28571 -37.08198,0 -67.14286,-28.78169 -67.14286,-64.28571 0,-35.50402 30.06088,-64.28571 67.14286,-64.28571 37.08197,0 67.14286,28.78169 67.14286,64.28571 z" sodipodi:ry="64.285713" sodipodi:rx="67.14286" sodipodi:cy="205.21933" sodipodi:cx="-915.71429" id="path2996-7-9" style="fill:#d75959;fill-opacity:1;stroke:none" sodipodi:type="arc"></path>
    </g>
    <g id="g4080" transform="translate(-4.29903,6.329553)" style="fill:#e5ea30;fill-opacity:1">
      <path sodipodi:nodetypes="ccccc" inkscape:connector-curvature="0" id="rect3768-2-9-0" d="m 222.4796,276.04772 c -10.67596,-1.8568 -12.98533,-0.7292 -17.26481,9.2627 l 23.65173,44.696 c 9.18543,1.8694 14.697,-1.2727 17.26482,-9.2626 z" style="fill:#e5ea30;fill-opacity:1;stroke:none"></path>
      <path sodipodi:nodetypes="ccccc" inkscape:connector-curvature="0" id="rect3768-0-3-8-2" d="m 246.02274,320.32412 c -8.55485,-6.6936 -11.11951,-6.7919 -19.56265,0 l 0,50.6448 c 7.23348,5.999 13.56506,5.8357 19.56265,0 z" style="fill:#e5ea30;fill-opacity:1;stroke:none"></path>
      <path sodipodi:nodetypes="ccccc" inkscape:connector-curvature="0" id="rect3768-1-4-5-8" d="m 188.38548,287.79902 c -3.52441,-10.3155 -2.43167,-16.2713 -13.82668,-11.4133 l -30.06515,43.0313 c 2.79571,9.0062 8.1845,12.3573 16.37562,10.7761 z" style="fill:#e5ea30;fill-opacity:1;stroke:none"></path>
      <path sodipodi:nodetypes="ccccc" inkscape:connector-curvature="0" id="rect3768-0-5-6-2-2" d="m 164.74459,317.16722 c -8.55485,-6.6936 -11.11951,-6.7919 -19.56265,0 l 0,50.6448 c 7.23348,5.999 13.56506,5.8357 19.56265,0 z" style="fill:#e5ea30;fill-opacity:1;stroke:none"></path>
      <path sodipodi:nodetypes="ccccc" inkscape:connector-curvature="0" id="rect3768-1-9-6-3-8" d="m 216.21863,376.97032 c -12.02069,-6.3631 -15.17006,-5.883 -23.84378,4.6003 l 12.05812,63.3649 c 10.24479,5.8047 17.92306,4.1115 23.84378,-4.6003 z" style="fill:#e5ea30;fill-opacity:1;stroke:none"></path>
      <path sodipodi:nodetypes="ccccc" inkscape:connector-curvature="0" id="rect3768-0-5-7-8-1-8" d="m 228.33372,439.96352 c -10.61668,-8.527 -13.79947,-8.6524 -24.27752,0 l 0,64.5177 c 8.97685,7.6423 16.83444,7.4342 24.27752,0 z" style="fill:#e5ea30;fill-opacity:1;stroke:none"></path>
      <path sodipodi:nodetypes="ccccc" inkscape:connector-curvature="0" id="rect3768-1-9-5-6-0-0" d="m 203.61335,381.60562 c -8.67348,-10.5222 -11.76455,-11.2963 -23.77062,-4.9693 l -13.02542,63.1705 c 7.24655,9.3202 14.98203,10.7248 23.77062,4.9694 z" style="fill:#e5ea30;fill-opacity:1;stroke:none"></path>
      <path sodipodi:nodetypes="ccccc" inkscape:connector-curvature="0" id="rect3768-0-5-7-5-5-9-4" d="m 190.64136,442.60312 c -7.28974,-11.5374 -10.25948,-12.697 -22.96075,-7.9413 l -20.81545,61.0183 c 6.02434,10.1641 13.52286,12.5376 22.96075,7.9413 z" style="fill:#e5ea30;fill-opacity:1;stroke:none"></path>
      <path sodipodi:nodetypes="ccccc" inkscape:connector-curvature="0" id="rect3766-82-9-0" d="m 220.87077,275.30222 c -10.70468,-6.6045 -30.79428,-10.2253 -45.1804,0.469 l 3.72621,100.834 c 10.09071,6.1004 22.51943,5.1383 36.33064,0 z" style="fill:#e5ea30;fill-opacity:1;stroke:none"></path>
      <path transform="matrix(-0.29010492,0,0,0.39400071,-65.52237,167.00172)" d="m -848.57143,205.21933 c 0,35.50402 -30.06089,64.28571 -67.14286,64.28571 -37.08198,0 -67.14286,-28.78169 -67.14286,-64.28571 0,-35.50402 30.06088,-64.28571 67.14286,-64.28571 37.08197,0 67.14286,28.78169 67.14286,64.28571 z" sodipodi:ry="64.285713" sodipodi:rx="67.14286" sodipodi:cy="205.21933" sodipodi:cx="-915.71429" id="path2996-8-6-0" style="fill:#e5ea30;fill-opacity:1;stroke:none" sodipodi:type="arc"></path>
    </g>
    <text xml:space="preserve" style="font-size:76px;font-style:normal;font-variant:normal;font-weight:normal;font-stretch:normal;text-align:center;line-height:125%;letter-spacing:0px;word-spacing:0px;writing-mode:lr-tb;text-anchor:middle;fill:#3b0c3b;fill-opacity:1;stroke:none;font-family:Ubuntu;-inkscape-font-specification:Ubuntu" id="text6421" sodipodi:linespacing="125%"><textPath xlink:href="#path4298-3" startOffset="50%" id="textPath6425"><tspan style="font-size:76px;font-style:normal;font-variant:normal;font-weight:normal;font-stretch:normal;text-align:center;line-height:125%;writing-mode:lr-tb;text-anchor:middle;fill:#3b0c3b;fill-opacity:1;font-family:Ubuntu;-inkscape-font-specification:Ubuntu" id="tspan6423">Error 4/04</tspan></textPath></text>
    <text xml:space="preserve" style="font-size:76px;font-style:normal;font-variant:normal;font-weight:normal;font-stretch:normal;text-align:center;line-height:139.99999762%;letter-spacing:0px;word-spacing:0px;writing-mode:lr-tb;text-anchor:middle;fill:#3b0c3b;fill-opacity:1;stroke:none;font-family:Ubuntu;-inkscape-font-specification:Ubuntu" id="text6440" sodipodi:linespacing="140%"><textPath xlink:href="#path4298" startOffset="50%" id="textPath6444"><tspan id="tspan6442" style="font-size:76px;font-style:normal;font-variant:normal;font-weight:normal;font-stretch:normal;text-align:center;line-height:139.99999762%;writing-mode:lr-tb;text-anchor:middle;fill:#3b0c3b;fill-opacity:1;font-family:Ubuntu;-inkscape-font-specification:Ubuntu">Democracy Not Found</tspan></textPath></text>
    <text xml:space="preserve" style="font-size:69.64276123px;font-style:normal;font-variant:normal;font-weight:normal;font-stretch:normal;line-height:125%;letter-spacing:0px;word-spacing:0px;fill:#3b0c3b;fill-opacity:1;stroke:none;font-family:Ubuntu;-inkscape-font-specification:Ubuntu" x="27.631786" y="523.84131" id="text3132" sodipodi:linespacing="125%" transform="scale(0.64622953,1.5474378)"><tspan sodipodi:role="line" id="tspan3134" x="27.631786" y="523.84131">www.404democracynotfound.org</tspan></text>
    <g id="g3122" style="fill:#56e74a;fill-opacity:1" transform="translate(0.859586,-1.45354)">
      <path sodipodi:nodetypes="ccccc" inkscape:connector-curvature="0" id="rect3768-0-5-7-5-2-5" d="m 528.80341,481.72049 c 8.3312,-7.0607 10.8289,-7.1644 19.0513,0 l 0,53.4222 c -7.0444,6.3279 -13.2105,6.1557 -19.0513,0 z" style="fill:#56e74a;fill-opacity:1;stroke:none"></path>
      <path sodipodi:nodetypes="ccccc" inkscape:connector-curvature="0" id="rect3768-82-0" d="m 470.40499,330.74819 c 3.15874,-8.4066 4.87508,-9.5674 13.39416,-8.3198 l 20.41806,36.078 c -2.53404,7.3498 -4.0674,12.7938 -10.52657,11.1873 z" style="fill:#56e74a;fill-opacity:1;stroke:none"></path>
      <path sodipodi:nodetypes="ccccc" inkscape:connector-curvature="0" id="rect3768-0-2-3" d="m 480.32353,289.70349 c 8.13571,-3.2419 10.15044,-2.745 15.20116,4.3678 l -11.25967,38.9807 c -6.95452,3.0023 -11.83817,1.4629 -15.20117,-4.3678 z" style="fill:#56e74a;fill-opacity:1;stroke:none"></path>
      <path sodipodi:nodetypes="csccc" inkscape:connector-curvature="0" id="rect3768-1-31-4" d="m 525.18411,364.72819 c 3.188,-6.8118 13.8008,-5.7706 18.9776,-2.0701 7.4725,5.3415 18.3224,27.7007 18.3224,27.7007 -2.5707,5.9601 -6.8137,7.9773 -12.924,6.5306 z" style="fill:#56e74a;fill-opacity:1;stroke:none"></path>
      <path sodipodi:nodetypes="ccccc" inkscape:connector-curvature="0" id="rect3768-0-5-2-3" d="m 548.86971,391.09339 c 5.8628,-4.5358 7.3532,-7.8796 13.4067,0 l 0,34.3191 c -4.9573,4.0651 -9.2964,3.9545 -13.4067,0 z" style="fill:#56e74a;fill-opacity:1;stroke:none"></path>
      <path sodipodi:nodetypes="ccccc" inkscape:connector-curvature="0" id="rect3768-1-9-5-3-5" d="m 522.23301,443.60279 c 7.6893,-6.4481 10.2373,-6.9052 19.5311,-2.9064 l 6.4446,41.0828 c -6.4584,5.7145 -12.8006,4.617 -19.5311,0.9945 z" style="fill:#56e74a;fill-opacity:1;stroke:none"></path>
      <path transform="matrix(0.24184665,0,0,0.29060423,739.66671,278.47829)" d="m -848.57143,205.21933 c 0,35.50402 -30.06089,64.28571 -67.14286,64.28571 -37.08198,0 -67.14286,-28.78169 -67.14286,-64.28571 0,-35.50402 30.06088,-64.28571 67.14286,-64.28571 37.08197,0 67.14286,28.78169 67.14286,64.28571 z" sodipodi:ry="64.285713" sodipodi:rx="67.14286" sodipodi:cy="205.21933" sodipodi:cx="-915.71429" id="path2996-5-7" style="fill:#56e74a;fill-opacity:1;stroke:none" sodipodi:type="arc"></path>
      <path sodipodi:nodetypes="ccccc" inkscape:connector-curvature="0" id="rect3768-1-9-8-2" d="m 500.01799,432.68779 c 9.18812,-0.6531 10.37032,0.8472 16.33632,10.1595 l -11.7255,36.3624 c -7.84752,0.8044 -13.46295,-1.2407 -17.4669,-8.607 z" style="fill:#56e74a;fill-opacity:1;stroke:none"></path>
      <path sodipodi:nodetypes="ccccc" inkscape:connector-curvature="0" id="rect3768-0-5-7-70-1" d="m 486.92101,471.29219 c 10.713,-3.3798 13.43879,-4.1268 18.3636,5.5908 l -21.66893,50.9342 c -9.20131,3.1882 -14.97287,0.704 -18.04503,-7.1839 z" style="fill:#56e74a;fill-opacity:1;stroke:none"></path>
      <path sodipodi:nodetypes="ccccc" inkscape:connector-curvature="0" id="rect3766-4-2" d="m 492.49076,359.91689 c 10.18605,-5.4687 34.21565,-2.717 47.90475,6.1381 l 1.2783,75.2905 c -9.6018,5.0513 -26.7371,3.8755 -39.87908,-0.3791 z" style="fill:#56e74a;fill-opacity:1;stroke:none"></path>
    </g>
    <g id="g3156" transform="translate(0.859586,-1.45354)" style="fill:#3f8639;fill-opacity:1">
      <path style="fill:#3f8639;fill-opacity:1;stroke:none" d="m 232.27942,520.05997 c 7.91968,7.3589 8.70578,10.3345 5.37195,22.9993 l -42.14743,20.4194 c -6.97877,-6.0855 -8.58153,-13.5952 -5.37195,-22.9993 z" id="rect3768-0-5-7-2-6" inkscape:connector-curvature="0" sodipodi:nodetypes="ccccc"></path>
      <path style="fill:#3f8639;fill-opacity:1;stroke:none" d="m 222.46526,366.72117 c 10.8174,-4.2137 6.77154,-3.1961 13.72711,5.4947 l -14.0637,48.5713 c -9.24079,3.8882 -15.82585,2.099 -20.48604,-5.0442 z" id="rect3768-8-2" inkscape:connector-curvature="0" sodipodi:nodetypes="ccccc"></path>
      <path style="fill:#3f8639;fill-opacity:1;stroke:none" d="m 266.98919,372.70997 c 3.71222,-14.6214 9.00238,-10.3997 17.1867,-6.1159 l 22.80758,43.1823 c -4.06742,8.4764 -9.97528,11.0385 -18.03482,8.3689 z" id="rect3768-1-3-2" inkscape:connector-curvature="0" sodipodi:nodetypes="ccccc"></path>
      <path style="fill:#3f8639;fill-opacity:1;stroke:none" d="m 240.52545,462.46257 c 13.02907,-6.3163 13.3111,-9.8448 22.71244,0.5615 l -24.03005,78.4188 c -11.10421,5.7621 -16.29505,-2.4268 -22.71245,-11.0746 z" id="rect3768-1-9-2-2" inkscape:connector-curvature="0" sodipodi:nodetypes="ccccc"></path>
      <path style="fill:#3f8639;fill-opacity:1;stroke:none" d="m 260.77237,465.83847 c 10.05932,-9.9097 7.19031,-14.5436 19.77458,-7.5591 l 15.26019,68.9236 c -8.43833,8.8037 -11.15676,12.7385 -20.29651,6.5121 z" id="rect3768-1-9-5-0-5" inkscape:connector-curvature="0" sodipodi:nodetypes="ccccc"></path>
      <path style="fill:#3f8639;fill-opacity:1;stroke:none" d="m 275.59752,530.28537 c 13.40543,-5.6067 12.0858,-12.4572 20.81484,-1.5643 l -12.31783,67.0983 c -11.44884,5.1566 -20.17308,-0.9727 -26.03408,-9.9501 z" id="rect3768-0-5-7-5-7-2" inkscape:connector-curvature="0" sodipodi:nodetypes="ccccc"></path>
      <path style="fill:#3f8639;fill-opacity:1;stroke:none" d="m 223.85468,366.15927 c 10.82899,-7.5986 32.10157,-13.1937 48.77306,-4.0777 l 6.89613,99.9607 c -10.22145,7.039 -23.72865,7.338 -39.17876,3.6514 z" id="rect3766-1-9" inkscape:connector-curvature="0" sodipodi:nodetypes="ccccc"></path>
      <path transform="matrix(0.29202918,-0.09929328,0.14700626,0.36766417,489.37119,171.69975)" sodipodi:type="arc" style="fill:#3f8639;fill-opacity:1;stroke:none" id="path2996-6-3" sodipodi:cx="-915.71429" sodipodi:cy="205.21933" sodipodi:rx="67.14286" sodipodi:ry="64.285713" d="m -848.57143,205.21933 c 0,35.50402 -30.06089,64.28571 -67.14286,64.28571 -37.08198,0 -67.14286,-28.78169 -67.14286,-64.28571 0,-35.50402 30.06088,-64.28571 67.14286,-64.28571 37.08197,0 67.14286,28.78169 67.14286,64.28571 z"></path>
      <path style="fill:#3f8639;fill-opacity:1;stroke:none" d="m 300.23713,402.18667 c 7.78983,6.6962 8.18375,8.8854 2.24158,16.7702 l -51.52244,4.8232 c -6.93178,-5.6296 -7.49114,-11.073 -2.24159,-16.7702 z" id="rect3768-0-5-0-0" inkscape:connector-curvature="0" sodipodi:nodetypes="ccccc"></path>
      <path style="fill:#3f8639;fill-opacity:1;stroke:none" d="m 201.87777,415.49227 c 6.01763,-9.2989 8.56865,-3.8139 19.75216,-0.6021 l 19.30217,46.3306 c -4.95535,8.1764 -11.41219,10.3266 -19.75215,7.1102 z" id="rect3768-0-53-6" inkscape:connector-curvature="0" sodipodi:nodetypes="ccccc"></path>
    </g>
    <g id="g3950" style="fill:#af38af;fill-opacity:1" transform="translate(-13.15966,4.2562626)">
      <path sodipodi:nodetypes="ccccc" inkscape:connector-curvature="0" id="rect3768-0-5-7-5-3-9" d="m 376.08301,474.40649 c 15.20002,-0.7013 19.75044,0.066 23.63456,14.1461 l -43.60089,56.9661 c -13.13375,0.9671 -20.13729,-4.1561 -22.05747,-15.2726 z" style="fill:#af38af;fill-opacity:1;stroke:none"></path>
      <g transform="translate(-497.45759,-758.21021)" id="g5904" style="fill:#af38af;fill-opacity:1;stroke:none">
        <rect style="fill:#af38af;fill-opacity:1;stroke:none" id="rect4097-0" width="1.9972349" height="119.15615" x="1131.6096" y="710.12433" transform="matrix(0.97383117,0.22727266,-0.31154843,0.95023027,0,0)"></rect>
        <g id="g5893" style="fill:#af38af;fill-opacity:1;stroke:none">
          <path sodipodi:nodetypes="ccccc" inkscape:connector-curvature="0" id="rect3768-0-5-7-7-0" d="m 908.86003,1231.4958 c 12.30194,-8.5919 16.32167,-10.3776 27.62833,-0.6558 l -3.60551,70.6042 c -10.42294,7.7257 -19.20903,7.1327 -27.17774,-1.1466 z" style="fill:#af38af;fill-opacity:1;stroke:none"></path>
          <path sodipodi:nodetypes="ccccc" inkscape:connector-curvature="0" id="rect3768-5-5" d="m 872.21282,1016.1221 c 4.61678,-10.9749 9.45691,-8.3617 19.95594,-5.8647 l 23.50672,49.8815 c -3.75321,9.6173 -5.78639,18.6566 -13.69285,15.8771 z" style="fill:#af38af;fill-opacity:1;stroke:none"></path>
          <path sodipodi:nodetypes="ccccc" inkscape:connector-curvature="0" id="rect3768-0-9-8" d="m 862.85044,968.69228 c 7.63088,-8.13196 10.3003,-8.71099 20.5118,-3.68602 l 10.1314,49.33184 c -6.38436,7.2064 -13.05582,8.2403 -20.51181,3.686 z" style="fill:#af38af;fill-opacity:1;stroke:none"></path>
          <path sodipodi:nodetypes="ccccc" inkscape:connector-curvature="0" id="rect3768-1-0-1" d="m 937.07237,1081.0419 c 8.45591,-7.0922 11.27367,-7.6404 21.60411,-3.5612 l 7.50317,41.8781 c -7.09958,6.2774 -9.94065,10.7993 -17.42871,7.0656 z" style="fill:#af38af;fill-opacity:1;stroke:none"></path>
          <path sodipodi:nodetypes="ccccc" inkscape:connector-curvature="0" id="rect3768-0-5-9-5" d="m 948.42528,1125.3528 c 5.42797,-7.8604 7.79242,-8.8496 18.32525,-7.0081 l 19.56429,36.2849 c -4.45852,6.8893 -10.45271,9.0405 -18.32526,7.0081 z" style="fill:#af38af;fill-opacity:1;stroke:none"></path>
          <path sodipodi:nodetypes="ccccc" inkscape:connector-curvature="0" id="rect3768-1-9-5-1-2" d="m 902.12253,1170.6547 c 14.9168,-2.8877 15.61519,-12.3335 21.66441,1.0255 l -27.63519,76.1641 c -12.83242,2.8522 -21.60388,-1.2015 -25.24657,-11.9143 z" style="fill:#af38af;fill-opacity:1;stroke:none"></path>
          <path transform="matrix(0.31098606,-0.03882742,0.05713438,0.42102164,1204.678,911.11692)" d="m -848.57143,205.21933 c 0,35.50402 -30.06089,64.28571 -67.14286,64.28571 -37.08198,0 -67.14286,-28.78169 -67.14286,-64.28571 0,-35.50402 30.06088,-64.28571 67.14286,-64.28571 37.08197,0 67.14286,28.78169 67.14286,64.28571 z" sodipodi:ry="64.285713" sodipodi:rx="67.14286" sodipodi:cy="205.21933" sodipodi:cx="-915.71429" id="path2996-2-0" style="fill:#af38af;fill-opacity:1;stroke:none" sodipodi:type="arc"></path>
          <path sodipodi:nodetypes="zcccz" inkscape:connector-curvature="0" id="rect3768-1-9-1-0" d="m 879.84182,1177.3704 c 2.52396,-15.6849 10.41788,-12.9613 25.17679,-9.5374 l 31.20209,62.0252 c -5.3635,11.54 -13.39396,15.0101 -24.5009,11.3397 0,0 -34.40195,-48.1426 -31.87798,-63.8275 z" style="fill:#af38af;fill-opacity:1;stroke:none"></path>
          <path sodipodi:nodetypes="sssssss" inkscape:connector-curvature="0" id="rect3766-8-9" d="m 899.79333,1062.7913 c -8.4047,-11.2063 43.97249,-3.0994 57.14169,11.3864 13.06461,14.3707 -9.26605,35.4257 -16.76665,48.3592 -8.55914,14.7589 -16.76665,48.3593 -16.76665,48.3593 -4.30286,12.4105 -36.03731,29.5714 -44.03981,11.091 -7.94943,-18.3578 -3.43171,-36.8379 12.76467,-58.6421 9.03206,-12.1593 8.4842,-59.4639 7.66675,-60.5538 z" style="fill:#af38af;fill-opacity:1;stroke:none"></path>
        </g>
      </g>
    </g>
    <path sodipodi:nodetypes="cssssc" style="fill:#800080;fill-opacity:1;stroke:none" d="m 377.93719,175.86083 c -32.47855,-4.68858 -149.33866,-3.04748 -107.47529,51.06884 9.05317,11.70292 34.85962,14.00478 42.73202,24.18135 5.22198,6.75039 15.04755,15.5204 25.56027,17.68058 5.64358,1.15966 -8.51414,-24.35624 -9.04805,-26.4798 -7.20216,-28.64566 32.05388,-50.78048 48.23105,-66.45097 z" id="path5103" inkscape:connector-curvature="0"></path>
    <text xml:space="preserve" style="font-size:76.48275757px;font-style:normal;font-variant:normal;font-weight:normal;font-stretch:normal;line-height:125%;letter-spacing:0px;word-spacing:0px;fill:#000000;fill-opacity:1;stroke:none;font-family:Ubuntu;-inkscape-font-specification:Ubuntu" x="302.88278" y="218.12256" id="text5116" sodipodi:linespacing="125%" transform="matrix(1.228555,0.20594839,-0.44771516,0.73891179,0,0)"><tspan sodipodi:role="line" id="tspan5118" x="302.88278" y="218.12256">!</tspan></text>
  </g>
</svg>